# xmcd
#
# Track frame offsets:
#	150
#	11812
#	32750
#	63712
#	75285
#	94555
#	117562
#	131775
#	135775
#	144532
#	190775
#	192960
#	239000
#	283155
#
# Disc length: 3929 seconds
#
# Revision: 0
# Processed by: cddbd v1.5.1PL0 Copyright (c) Steve Scherf et al.
# Submitted via: dBpowerAMP V4.0
#
DISCID=c80f570e
DTITLE=Son House - The Oberlin College Concert
DYEAR=1965
DGENRE=Blues
TTITLE0=Introduction "Dick Waterman"
TTITLE1=Son House (Intro)
TTITLE2=Levee Camp Moan
TTITLE3=Monologue
TTITLE4=Death Letter
TTITLE5=Monologue
TTITLE6=Empire State Express
TTITLE7=Monologue
TTITLE8=Grinnin' In Your Face
TTITLE9="Preachin' Blues"
TTITLE10=Tuning Up
TTITLE11=Son's Blues
TTITLE12=Levee Camp Moan
TTITLE13=John The Revelator
EXTD=
EXTT0=
EXTT1=
EXTT2=
EXTT3=
EXTT4=
EXTT5=
EXTT6=
EXTT7=
EXTT8=
EXTT9=
EXTT10=
EXTT11=
EXTT12=
EXTT13=
PLAYORDER=
